<svg xmlns="http://www.w3.org/2000/svg" width="341.3" height="341.3" version="1.0" viewBox="0 0 256 256"><path d="M83.5 1.4c-1.7.7-3.7 2.1-4.5 3.1-.8.9-4.1 3.5-7.5 5.7-7.9 5.3-8.7 6.5-8 10.9l.6 3.7-5.8 1.9-5.8 2-.2 6.1-.3 6.1 4.3.4 4.2.4-4.2.1c-3.9.2-4.3.5-4.3 2.7 0 2.3.4 2.5 4.5 2.5 2.5 0 4.5.4 4.5 1 0 .5-2 1-4.5 1-4.1 0-4.5.2-4.5 2.5 0 2.2.4 2.5 4 2.5s4 .2 4 2.5c0 2.4-.3 2.5-5.5 2.5H49v47.9l4.5 3.1 4.5 3.1v57.6l-4.5 4.1-4.6 4.1.3 12.7.3 12.6 9.5 5c9.5 5 19 11.5 19 13 0 1.7 8.1 6.6 11.9 7.2l3.9.6.4 7.1c.2 3.8-.1 7.4-.5 7.8-.5.5-.7 3-.5 5.7l.3 4.9 8.4.3c9.4.3 10.1-.1 10.1-6 0-2.7-.6-4.1-2.2-5.2-1.8-1.3-1.9-1.6-.5-1.6 1.5 0 1.7-1.1 1.7-7.5V228h2.9c2.8 0 3 .2 3.3 4.8l.3 4.7h21l.3-5.8.5-5.7c1.8 0 27.5-3.4 34.2-4.6 15.7-2.6 18.1-3.7 26.3-12.3l7.2-7.6v-84.8c0-82.4-.1-84.9-2-88.6-3.5-7-8.9-9.1-36-14C146.3 9.9 88.4 0 87.4 0c-.5.1-2.3.7-3.9 1.4zm37.6 7.5c59.8 10.2 73 12.8 77.6 15.8 5.4 3.5 5.3 2.4 5.3 92.3v83l-7.2 7.4-7.3 7.4-9 2a630.2 630.2 0 0 1-78.7 8.9l-13.7.6-3.3-3.1a13.6 13.6 0 0 0-3.9-3.2c-2.6 0-2.9-9.6-2.9-105.4 0-63.4.4-100.4 1-102.7 1.2-4.3 7.3-9.1 10.6-8.4l31.5 5.4zm-45.5 4c-.3.4-.6 46.1-.6 101.5-.1 55.3-.3 100.6-.5 100.6s-2-1.4-4-3.1l-3.5-3.1V17.3l3.8-2.6c3.8-2.6 5.7-3.4 4.8-1.8zM63.9 30.7c0 1.6-.3 2.2-.6 1.5-.2-.6-1.9-1.2-3.6-1.2l-3.2-.1 3-1.4c4.2-1.9 4.5-1.8 4.4 1.2zm-.1 114.5c-.2 33.3-.6 60.9-1 61.3-.3.3-2.9-.5-5.7-1.9L52 202v-21l4.5-4.1 4.5-4.2v-30.3c0-33.5.4-31.5-6.4-35.9l-2.6-1.7V62.1l5.8-.3 5.7-.3.3 11.5v72.2zm72.2 85.3v4.5h-15v-6.8l6.8-.9 7.5-1.2c.4 0 .7 1.9.7 4.4zm-28 3.9c0 3.9-.4 5.5-1.5 6-.9.3-1.5 1.8-1.5 3.6s.6 3.3 1.5 3.6a3 3 0 0 1 1.5 2.5c0 1.7-.8 1.9-6 1.9s-6-.2-6-1.9c0-1 .9-2.1 2-2.4 2.5-.6 2.9-6.7.5-6.7-1.2 0-1.5-1.3-1.5-6v-6h11v5.4z"/><path d="m126.2 150.7.3 32.8 22.8.3 22.7.2v-63h-2.7a605 605 0 0 1-20.3-1.5 605 605 0 0 0-20.3-1.5H126l.2 32.7zm25.1-27.7c7 .6 13.9 1 15.3 1h2.4l-.1 22.2c0 14.4-.3 21.5-.9 20-1.1-2.6-6.4-3.1-7.8-.6-.8 1.4-1 1.4-2.1 0-1.9-2.3-5.7-2-7.5.6-1.3 1.8-1.6 1.9-1.6.5 0-2.7-5-3.4-7-1-1.6 2-1.7 2-2.8.2-1.7-2.6-4.8-2.4-6.7.5-1.8 2.6-1.1 5.2 1.6 6.7 2 1 5.9-.3 5.9-2.1 0-.6.9-.1 2 1 2.5 2.5 3.5 2.5 5.9.1 1.7-1.7 2.1-1.8 3.2-.5 1.7 2.1 5.6 1.7 7.3-.8 1.3-1.8 1.6-1.9 1.6-.5 0 1 1.1 1.9 2.7 2.3 2 .6 3.1.2 4.5-1.6 1.8-2.2 1.8-2.2 1.8 3.9v6.1h-40v-60.1l4.8.6 17.5 1.5zM137 169.1c0 .5-.4.9-1 .9-.5 0-1-.7-1-1.6 0-.8.5-1.2 1-.9.6.3 1 1 1 1.6zm9-.6c0 .8-.4 1.5-1 1.5-.5 0-1-.7-1-1.5s.5-1.5 1-1.5c.6 0 1 .7 1 1.5zm10 0c0 .8-.7 1.5-1.5 1.5s-1.5-.7-1.5-1.5.7-1.5 1.5-1.5 1.5.7 1.5 1.5zm9 0c0 .8-.4 1.5-1 1.5-.5 0-1-.7-1-1.5s.5-1.5 1-1.5c.6 0 1 .7 1 1.5z"/><path d="M136.7 130.7c-.4.3-.7 5.2-.7 10.8v10.2l9.2.7c5 .3 10.8.6 13 .6h3.8V131.3l-7.7-.7c-9.8-.8-16.8-.8-17.6.1zm16.9 3.3h5.4v16.2l-3.1-.6c-1.7-.3-6.2-.6-10-.6H139V132.7l4.6.7c2.6.3 7.1.6 10 .6z"/></svg>
