<svg width="610" height="180" viewBox="0 0 610 180" fill="none" xmlns="http://www.w3.org/2000/svg">
    <rect x="570" width="40" height="180" fill="black"/>
    <path d="M180 0H0V180H86.158C78.6975 175.9 72.6554 170.507 68.032 163.818C62.2365 155.295 59.1967 144.756 58.9126 132.199H94.6229C95.0206 138.051 96.6967 142.938 99.6513 146.858C102.663 150.722 106.668 153.648 111.668 155.636C116.725 157.568 122.435 158.534 128.799 158.534C135.049 158.534 140.475 157.625 145.077 155.807C149.737 153.989 153.344 151.46 155.901 148.222C158.458 144.983 159.737 141.261 159.737 137.057C159.737 133.136 158.572 129.841 156.242 127.17C153.969 124.5 150.617 122.227 146.185 120.352C141.81 118.477 136.441 116.773 130.077 115.239L111.072 110.466C96.3558 106.886 84.7365 101.29 76.2138 93.6761C67.691 86.0625 63.4581 75.8068 63.5149 62.9091C63.4581 52.3409 66.2706 43.1079 71.9524 35.2102C77.6911 27.3125 85.5604 21.1477 95.5604 16.7159C105.56 12.2841 116.924 10.0682 129.651 10.0682C142.606 10.0682 153.913 12.2841 163.572 16.7159C169.99 19.6435 175.466 23.3274 180 27.7675V0Z" fill="black"/>
    <path d="M180 62.6534H159.225C158.543 55.7784 155.617 50.4375 150.447 46.6307C145.276 42.8239 138.259 40.9204 129.396 40.9204C123.373 40.9204 118.288 41.7727 114.14 43.4773C109.992 45.125 106.81 47.4261 104.594 50.3807C102.435 53.3352 101.356 56.6875 101.356 60.4375C101.242 63.5625 101.896 66.2898 103.316 68.6193C104.793 70.9489 106.81 72.9659 109.367 74.6705C111.924 76.3182 114.879 77.767 118.231 79.017C121.583 80.2102 125.163 81.233 128.969 82.0852L144.651 85.8352C152.265 87.5398 159.254 89.8125 165.617 92.6534C171.028 95.0687 175.822 97.9564 180 101.316V62.6534Z" fill="black"/>
    <path d="M180 174.497C177.555 176.515 174.857 178.349 171.906 180H180V174.497Z" fill="black"/>
    <path d="M370 0H190V180H236.361L294.2 12.4545H341.757L370 94.3829V0Z" fill="black"/>
    <path d="M360.109 180L349.459 147.199H286.438L275.767 180H360.109Z" fill="black"/>
    <path d="M295.809 118.392H340.106L318.661 52.3409H317.297L295.809 118.392Z" fill="black"/>
    <path d="M560 0H380V180H466.268C461.008 176.556 456.619 172.157 453.102 166.801C448.102 159.131 445.631 149.5 445.688 137.909H482.42C482.534 142.511 483.472 146.46 485.233 149.756C487.051 152.994 489.523 155.494 492.648 157.256C495.83 158.96 499.58 159.812 503.898 159.812C508.443 159.812 512.278 158.847 515.403 156.915C518.585 154.926 521 152.028 522.648 148.222C524.295 144.415 525.119 139.727 525.119 134.159V12.4545H560V0Z" fill="black"/>
    <path d="M560 148.71C558.744 154.065 556.748 158.988 554.011 163.477C549.926 170.256 544.531 175.763 537.828 180H560V148.71Z" fill="black"/>
</svg>
